<?xml version="1.0" encoding="UTF-8" standalone="no"?>
<!-- Generator: Gravit.io -->
<svg xmlns="http://www.w3.org/2000/svg" xmlns:xlink="http://www.w3.org/1999/xlink" style="isolation:isolate" viewBox="0 0 1400 1443" width="1400pt" height="1443pt"><defs><clipPath id="_clipPath_SVXHADBhncRijaVWbgRWrYIfVpMNLb6Z"><rect width="1400" height="1443"/></clipPath></defs><g clip-path="url(#_clipPath_SVXHADBhncRijaVWbgRWrYIfVpMNLb6Z)"><path d="M 18 0 L 1382 0 C 1391.934 0 1400 8.066 1400 18 L 1400 1425 C 1400 1434.934 1391.934 1443 1382 1443 L 18 1443 C 8.066 1443 0 1434.934 0 1425 L 0 18 C 0 8.066 8.066 0 18 0 Z" style="stroke:none;fill:#1D1D1D;stroke-miterlimit:10;"/><g><path d=" M 1113.979 499.233 L 959.446 499.233 L 959.446 456.903 L 1216.457 456.903 L 1216.457 217.543 L 1164.404 217.543 L 1164.404 165.432 L 746.355 165.432 L 746.355 217.539 L 695.927 217.539 L 695.927 551.34 L 643.882 551.34 L 643.882 601.816 L 567.43 601.816 L 567.43 653.923 L 490.976 653.923 L 490.976 706.027 L 438.923 706.027 L 438.923 756.506 L 344.577 756.506 L 344.577 704.399 L 294.152 704.399 L 294.152 653.923 L 242.1 653.923 L 242.1 551.34 L 183.543 551.34 L 183.543 867.232 L 233.968 867.232 L 233.968 919.336 L 286.017 919.336 L 286.017 969.815 L 336.445 969.815 L 336.445 1021.919 L 388.498 1021.919 L 388.498 1072.398 L 438.923 1072.398 L 438.923 1277.565 L 549.536 1277.565 L 549.536 1218.939 L 499.107 1218.939 L 499.107 1174.985 L 549.536 1174.985 L 549.536 1124.506 L 601.588 1124.506 L 601.588 1072.402 L 643.878 1072.402 L 643.878 1124.506 L 695.931 1124.506 L 695.931 1277.568 L 806.543 1277.568 L 806.543 1218.939 L 754.491 1218.939 L 754.491 1021.915 L 806.543 1021.915 L 806.543 969.819 L 856.968 969.819 L 856.968 893.288 L 909.021 893.288 L 909.021 714.173 L 951.314 714.173 L 951.314 764.653 L 1011.498 764.653 L 1011.498 653.927 L 909.024 653.927 L 909.024 559.486 L 1113.979 559.486 L 1113.979 499.233 Z " fill-rule="evenodd" fill="rgb(61,171,123)"/><path d=" M 796.784 240.335 L 858.596 240.335 L 858.596 302.209 L 796.784 302.209 L 796.784 240.335 Z " fill-rule="evenodd" fill="rgb(255,255,255)"/></g></g></svg>