<?xml version="1.0" encoding="UTF-8" standalone="no"?>
<!-- Generator: Gravit.io -->
<svg xmlns="http://www.w3.org/2000/svg" xmlns:xlink="http://www.w3.org/1999/xlink" style="isolation:isolate" viewBox="0 0 385.124 75" width="385.124pt" height="75pt"><defs><clipPath id="_clipPath_IFJMkzoCvwKLvJWdsQkGVXHFMpkZOrQx"><rect width="385.124" height="75"/></clipPath></defs><g clip-path="url(#_clipPath_IFJMkzoCvwKLvJWdsQkGVXHFMpkZOrQx)"><path d=" M 0 73.975 L 0 2.225 L 17.22 2.225 L 17.22 2.225 Q 25.625 2.225 29.827 6.735 L 29.827 6.735 L 29.827 6.735 Q 34.03 11.245 34.03 19.957 L 34.03 19.957 L 34.03 56.243 L 34.03 56.243 Q 34.03 64.955 29.827 69.465 L 29.827 69.465 L 29.827 69.465 Q 25.625 73.975 17.22 73.975 L 17.22 73.975 L 0 73.975 Z  M 11.275 63.725 L 17.015 63.725 L 17.015 63.725 Q 19.782 63.725 21.269 62.085 L 21.269 62.085 L 21.269 62.085 Q 22.755 60.445 22.755 56.755 L 22.755 56.755 L 22.755 19.445 L 22.755 19.445 Q 22.755 15.755 21.269 14.115 L 21.269 14.115 L 21.269 14.115 Q 19.782 12.475 17.015 12.475 L 17.015 12.475 L 11.275 12.475 L 11.275 63.725 Z  M 54.427 73.975 L 54.427 2.225 L 65.702 2.225 L 65.702 73.975 L 54.427 73.975 Z  M 86.92 73.975 L 86.92 2.225 L 101.065 2.225 L 112.032 45.172 L 112.238 45.172 L 112.238 2.225 L 122.282 2.225 L 122.282 73.975 L 110.7 73.975 L 97.17 21.597 L 96.965 21.597 L 96.965 73.975 L 86.92 73.975 Z  M 159.798 75 L 159.798 75 Q 151.495 75 147.088 70.285 L 147.088 70.285 L 147.088 70.285 Q 142.68 65.57 142.68 56.96 L 142.68 56.96 L 142.68 19.24 L 142.68 19.24 Q 142.68 10.63 147.088 5.915 L 147.088 5.915 L 147.088 5.915 Q 151.495 1.2 159.798 1.2 L 159.798 1.2 L 159.798 1.2 Q 168.1 1.2 172.507 5.915 L 172.507 5.915 L 172.507 5.915 Q 176.915 10.63 176.915 19.24 L 176.915 19.24 L 176.915 56.96 L 176.915 56.96 Q 176.915 65.57 172.507 70.285 L 172.507 70.285 L 172.507 70.285 Q 168.1 75 159.798 75 L 159.798 75 Z  M 159.798 64.75 L 159.798 64.75 Q 165.64 64.75 165.64 57.678 L 165.64 57.678 L 165.64 18.522 L 165.64 18.522 Q 165.64 11.45 159.798 11.45 L 159.798 11.45 L 159.798 11.45 Q 153.955 11.45 153.955 18.522 L 153.955 18.522 L 153.955 57.678 L 153.955 57.678 Q 153.955 64.75 159.798 64.75 L 159.798 64.75 Z " fill="rgb(255,255,255)"/><g><path d=" M 205.824 75 L 205.824 75 Q 197.824 75 193.624 70.45 L 193.624 70.45 L 193.624 70.45 Q 189.424 65.9 189.424 57.4 L 189.424 57.4 L 189.424 20.6 L 189.424 20.6 Q 189.424 12.1 193.624 7.55 L 193.624 7.55 L 193.624 7.55 Q 197.824 3 205.824 3 L 205.824 3 L 205.824 3 Q 213.824 3 218.024 7.55 L 218.024 7.55 L 218.024 7.55 Q 222.224 12.1 222.224 20.6 L 222.224 20.6 L 222.224 26.6 L 211.824 26.6 L 211.824 19.9 L 211.824 19.9 Q 211.824 13 206.124 13 L 206.124 13 L 206.124 13 Q 200.424 13 200.424 19.9 L 200.424 19.9 L 200.424 58.2 L 200.424 58.2 Q 200.424 65 206.124 65 L 206.124 65 L 206.124 65 Q 211.824 65 211.824 58.2 L 211.824 58.2 L 211.824 44.5 L 206.324 44.5 L 206.324 34.5 L 222.224 34.5 L 222.224 57.4 L 222.224 57.4 Q 222.224 65.9 218.024 70.45 L 218.024 70.45 L 218.024 70.45 Q 213.824 75 205.824 75 L 205.824 75 Z " fill="rgb(61,171,123)"/><path d=" M 236.424 74 L 247.824 4 L 262.724 4 L 274.124 74 L 263.124 74 L 261.124 60.1 L 261.124 60.3 L 248.624 60.3 L 246.624 74 L 236.424 74 Z  M 249.924 50.8 L 259.824 50.8 L 254.924 16.2 L 254.724 16.2 L 249.924 50.8 Z " fill-rule="evenodd" fill="rgb(61,171,123)"/><path d=" M 289.424 74 L 289.424 4 L 305.124 4 L 312.124 54.1 L 312.324 54.1 L 319.324 4 L 335.024 4 L 335.024 74 L 324.624 74 L 324.624 21 L 324.424 21 L 316.424 74 L 307.224 74 L 299.224 21 L 299.024 21 L 299.024 74 L 289.424 74 Z " fill="rgb(61,171,123)"/><path d=" M 360.124 7 L 364.115 4 L 372.124 7 Q 369.718 10.875 366.124 11 L 364.115 8 L 360.124 7 L 360.124 7 L 360.124 7 Z  M 353.224 74 L 353.224 4 L 359.115 4 L 364.981 0 L 372.124 4 L 383.224 4 L 385.124 9 L 383.224 14 L 374.143 19 L 374.143 15 L 370.124 17 L 369.124 14 L 364.224 15 L 364.224 32.5 L 367.699 32.5 L 371.124 34.5 L 374.275 32.5 L 379.324 32.5 L 376.124 40 L 364.224 42.5 L 364.224 64 L 368.124 62 L 371.124 63 L 374.143 61 L 376.124 62 L 379.324 60.1 L 383.224 64 L 383.224 74 L 353.224 74 L 353.224 74 L 353.224 74 Z  M 379.224 6.25 L 379.224 11.75 L 383.224 11.25 L 379.224 6.25 Z " fill-rule="evenodd" fill="rgb(61,171,123)"/></g></g></svg>